<svg xmlns="http://www.w3.org/2000/svg" viewBox="0 0 500 500" enable-background="new 0 0 500 500"><g stroke="#A8BBCB" stroke-width="14" stroke-miterlimit="10" fill="none"><path d="M292.4 94.7l68.9-33.3-60.4-25.8c-5.6-2.4-12-2.4-17.7-.1L222.5 61l69.9 33.7zM221.2 185.8l-2.6-45.1c-.3-5.9 2.9-11.4 8.2-13.9l41.6-20.3-71.3-34.6L163.5 86c-7.5 3.2-12 10.9-11 18.9l4.6 39.5 64.1 41.4zM427.1 144.1l4.9-39.9c.9-7.6-3.3-14.9-10.4-17.8l-34.9-14.5-70.6 34.6 42.1 20.3c5.3 2.6 8.6 8.1 8.2 14l-3.1 45 63.8-41.7zM361.3 212l-5.2 71.6 49-36.1c6.3-4.6 10.4-11.6 11.4-19.4L424 171l-62.7 41zM222.9 212l-62.7-41 6.6 55.3c1.1 9.1 5.9 17.3 13.3 22.7l47.6 34.6-4.8-71.6zM339.3 226.4L301 251.7c-5.2 3.4-11.9 3.4-17 0l-38.6-25.3 4.8 73.2 31.9 23c6.3 4.5 14.7 4.5 20.9-.1l30.9-22.9 5.4-73.2z"/></g><path stroke="#A8BBCB" stroke-width="14" stroke-miterlimit="10" d="M342.4 358.5c-18.4 10.2-43.8 19.6-69 23.5-22.5 3.5-64.8 4.5-64.8-15 0-5.1 37.2 5.7 59.6-.3 17.2-4.6 14.7-17 5.3-19.1-9.3-2.1-63.8-22.1-87.1-22.8-9.2-.3-32.8 3.1-48 5.5-4.4.7-7.7 4.5-7.7 9 0 41-.1 56.8 0 74.1 0 4.4 3.3 8.1 7.7 8.6 28.4 3.3 118.8 9.7 130.6 7 19-4.4 72.9-36.3 83.2-46.2 16.1-15.4 3.6-31.7-9.8-24.3zM102.7 333.4H67.1c-5.6 0-10.1 4.5-10.1 10.1v67.3c0 5.6 4.5 10.1 10.1 10.1h35.6c5.6 0 10.1-4.5 10.1-10.1v-67.3c.1-5.5-4.5-10.1-10.1-10.1zm-14.2 76.8c-5.7 0-10.3-4.6-10.3-10.3 0-5.7 4.6-10.3 10.3-10.3 5.7 0 10.3 4.6 10.3 10.3-.1 5.7-4.7 10.3-10.3 10.3z" fill="none"/></svg>