<svg xmlns="http://www.w3.org/2000/svg" viewBox="0 0 165.435 179.098"><title>daocloud-logo</title><path fill="#b3c8d7" d="M82.718 37.666l40.435-19.94L82.533 0l-40.62 17.54 40.805 20.126zM41.174 92.32l-2.03-32.867 29.54-14.77-41.727-20.68L0 35.82l3.508 31.573L41.174 92.32zM161.558 67.208l3.877-31.388-27.326-11.817-41.36 20.68 29.91 14.77-2.4 32.866 37.298-25.112zM123.153 108.013L120.2 150.85 154.54 125l5.17-41.544-36.56 24.557zM42.097 108.013L5.54 83.456l4.8 41.728 34.527 25.665-2.77-42.837zM110.23 116.69L82.9 135.156 55.207 116.69l2.77 43.945 24.74 18.463 24.373-18.463 3.14-43.944z"/></svg>