<svg xmlns="http://www.w3.org/2000/svg" viewBox="0 0 500 500" enable-background="new 0 0 500 500"><g fill="#A8BBCB"><path d="M190.992 102.428c-3.648 0-6.606 2.958-6.606 6.606v13.212c0 3.648 2.958 6.606 6.606 6.606s6.606-2.958 6.606-6.606v-13.212c0-3.65-2.957-6.606-6.606-6.606zM323.12 102.428c-3.647 0-6.605 2.958-6.605 6.606v13.212c0 3.648 2.958 6.606 6.606 6.606s6.607-2.958 6.607-6.606v-13.212c0-3.65-2.957-6.606-6.606-6.606zM442.037 49.578H336.334c-5.072 0-9.703 1.918-13.213 5.063-3.508-3.144-8.14-5.062-13.212-5.062H204.205c-5.072 0-9.704 1.918-13.213 5.063-3.51-3.144-8.14-5.062-13.213-5.062H72.076c-10.928 0-19.82 8.89-19.82 19.82v336.927c0 10.928 8.892 19.82 19.82 19.82H177.78c5.072 0 9.703-1.92 13.213-5.064 3.51 3.147 8.14 5.064 13.213 5.064H309.91c5.07 0 9.703-1.918 13.212-5.063 3.51 3.147 8.14 5.064 13.213 5.064h105.703c10.928 0 19.82-8.89 19.82-19.82V69.398c-.002-10.927-8.893-19.82-19.82-19.82zm6.607 356.748c0 3.643-2.964 6.606-6.606 6.606H336.334c-3.643 0-6.606-2.964-6.606-6.606v-257.65c0-3.647-2.958-6.605-6.606-6.605s-6.606 2.96-6.606 6.607v257.65c0 3.642-2.964 6.605-6.606 6.605H204.205c-3.643 0-6.606-2.964-6.606-6.606v-257.65c0-3.647-2.96-6.605-6.607-6.605s-6.606 2.96-6.606 6.607v257.65c0 3.642-2.964 6.605-6.606 6.605H72.078c-3.643 0-6.606-2.964-6.606-6.606V69.396c0-3.642 2.965-6.605 6.607-6.605H177.78c3.643 0 6.606 2.965 6.606 6.607v13.215c0 3.648 2.958 6.606 6.606 6.606s6.606-2.958 6.606-6.606V69.397c0-3.643 2.964-6.606 6.606-6.606h105.703c3.643 0 6.606 2.965 6.606 6.607v13.215c0 3.648 2.958 6.606 6.606 6.606s6.605-2.958 6.605-6.606V69.397c0-3.643 2.964-6.606 6.606-6.606h105.704c3.643 0 6.606 2.965 6.606 6.607v336.93zM290.09 102.43h-66.065c-7.285 0-13.213 5.928-13.213 13.213v132.13c0 7.284 5.928 13.212 13.213 13.212h66.064c7.284 0 13.212-5.928 13.212-13.213v-132.13c0-7.285-5.928-13.212-13.213-13.212zm0 145.34h-66.065V115.643h66.064v132.13zM243.844 148.675h26.426c3.648 0 6.606-2.958 6.606-6.606 0-3.65-2.958-6.607-6.606-6.607h-26.426c-3.648 0-6.606 2.958-6.606 6.606 0 3.647 2.958 6.605 6.606 6.605zM243.844 175.1h26.426c3.648 0 6.606-2.958 6.606-6.606s-2.958-6.606-6.606-6.606h-26.426c-3.648 0-6.606 2.958-6.606 6.606s2.958 6.606 6.606 6.606zM243.844 201.526h26.426c3.648 0 6.606-2.958 6.606-6.606s-2.958-6.606-6.606-6.606h-26.426c-3.648 0-6.606 2.958-6.606 6.606s2.958 6.606 6.606 6.606zM243.844 227.952h26.426c3.648 0 6.606-2.958 6.606-6.606s-2.958-6.606-6.606-6.606h-26.426c-3.648 0-6.606 2.958-6.606 6.606s2.958 6.606 6.606 6.606zM157.96 102.43H91.896c-7.285 0-13.213 5.928-13.213 13.213v132.13c0 7.284 5.928 13.212 13.213 13.212h66.064c7.285 0 13.213-5.928 13.213-13.213v-132.13c0-7.285-5.927-13.212-13.213-13.212zm0 145.34H91.896V115.643h66.064v132.13zM111.715 148.675h26.426c3.65 0 6.607-2.958 6.607-6.606 0-3.65-2.958-6.607-6.606-6.607h-26.425c-3.648 0-6.606 2.958-6.606 6.606 0 3.647 2.957 6.605 6.605 6.605zM111.715 175.1h26.426c3.65 0 6.607-2.958 6.607-6.606s-2.958-6.606-6.606-6.606h-26.425c-3.648 0-6.606 2.958-6.606 6.606s2.957 6.606 6.605 6.606zM111.715 201.526h26.426c3.65 0 6.607-2.958 6.607-6.606s-2.958-6.606-6.606-6.606h-26.425c-3.648 0-6.606 2.958-6.606 6.606s2.957 6.606 6.605 6.606zM422.218 102.43h-66.064c-7.285 0-13.213 5.928-13.213 13.213v132.13c0 7.284 5.93 13.212 13.214 13.212h66.064c7.285 0 13.213-5.928 13.213-13.213v-132.13c0-7.285-5.927-13.212-13.212-13.212zm0 145.34h-66.064V115.643h66.064v132.13zM375.973 148.675H402.4c3.647 0 6.605-2.958 6.605-6.606 0-3.65-2.958-6.607-6.606-6.607h-26.427c-3.648 0-6.606 2.958-6.606 6.606 0 3.647 2.957 6.605 6.606 6.605zM375.973 175.1H402.4c3.647 0 6.605-2.958 6.605-6.606s-2.958-6.606-6.606-6.606h-26.427c-3.648 0-6.606 2.958-6.606 6.606s2.957 6.606 6.606 6.606zM390.316 327.54l17.584-8.492-15.42-6.586c-1.44-.615-3.068-.62-4.512-.013l-15.5 6.513 17.848 8.577zM372.116 350.786l-.65-11.508c-.086-1.5.737-2.903 2.086-3.56l10.61-5.176-18.2-8.835-8.56 3.614c-1.91.808-3.057 2.778-2.816 4.837l1.177 10.078 16.353 10.55zM424.693 340.15l1.264-10.187c.24-1.94-.842-3.8-2.646-4.55l-8.904-3.706-18.024 8.835 10.755 5.176c1.363.656 2.19 2.076 2.084 3.585l-.793 11.483 16.266-10.637zM407.9 357.477l-1.32 18.27 12.523-9.215c1.605-1.18 2.657-2.967 2.913-4.943l1.886-14.578-16.002 10.465zM372.556 357.477l-16.002-10.465 1.678 14.12c.275 2.32 1.506 4.416 3.394 5.787l12.16 8.828-1.23-18.27zM402.273 361.165l-9.783 6.457c-1.32.87-3.03.874-4.353.007l-9.867-6.465 1.23 18.7 8.134 5.87c1.597 1.153 3.757 1.14 5.34-.03l7.893-5.84 1.406-18.7zM257.1 327.54l17.585-8.492-15.42-6.586c-1.44-.615-3.068-.62-4.512-.013l-15.5 6.513 17.848 8.577zM238.9 350.786l-.65-11.508c-.085-1.5.738-2.903 2.087-3.56l10.61-5.176-18.2-8.835-8.56 3.614c-1.91.808-3.057 2.778-2.816 4.837l1.178 10.078 16.353 10.55zM291.478 340.15l1.264-10.187c.24-1.94-.842-3.8-2.646-4.55l-8.905-3.706-18.023 8.835 10.755 5.176c1.363.656 2.19 2.076 2.084 3.585l-.794 11.483 16.266-10.637zM274.685 357.477l-1.32 18.27 12.523-9.215c1.605-1.18 2.657-2.967 2.913-4.943l1.887-14.578-16.002 10.465zM239.34 357.477l-16.002-10.465 1.678 14.12c.275 2.32 1.506 4.416 3.394 5.787l12.16 8.828-1.23-18.27zM269.058 361.165l-9.783 6.457c-1.32.87-3.03.874-4.353.007l-9.867-6.465 1.23 18.7 8.134 5.87c1.596 1.153 3.756 1.14 5.34-.03l7.892-5.84 1.406-18.7zM124.972 329.03l17.584-8.49-15.42-6.587c-1.44-.615-3.068-.62-4.512-.013l-15.5 6.514 17.848 8.577zM106.772 352.278l-.65-11.508c-.086-1.5.737-2.903 2.086-3.56l10.61-5.176-18.2-8.835-8.56 3.613c-1.91.807-3.057 2.777-2.816 4.836l1.177 10.077 16.352 10.55zM159.35 341.64l1.263-10.185c.24-1.94-.842-3.8-2.646-4.55l-8.905-3.706-18.024 8.834 10.755 5.176c1.363.656 2.19 2.076 2.084 3.585l-.794 11.483 16.266-10.637zM142.556 358.968l-1.32 18.27 12.523-9.215c1.604-1.18 2.656-2.967 2.912-4.943l1.886-14.577-16.002 10.465zM107.212 358.968L91.21 348.503l1.678 14.12c.275 2.32 1.506 4.416 3.394 5.787l12.16 8.83-1.23-18.272zM136.93 362.657l-9.784 6.457c-1.32.87-3.03.874-4.353.007l-9.867-6.463 1.23 18.7 8.134 5.87c1.597 1.153 3.757 1.14 5.34-.03l7.893-5.84 1.406-18.7z"/></g></svg>