<svg xmlns="http://www.w3.org/2000/svg" preserveAspectRatio="xMidYMid" width="24" height="14" viewBox="0 0 24 14"><defs><style>.cls-2 { fill: #434a54; }</style></defs><path d="M0 7c0 .124.02.247.063.37.04.125.124.228.25.31l6 5.938c.458.495.927.506 1.406.03.478-.473.468-.937-.032-1.39L3.438 7.99H23c.292 0 .53-.093.72-.28.186-.184.28-.42.28-.71s-.094-.526-.28-.71c-.19-.187-.428-.28-.72-.28H3.437l4.25-4.268c.5-.453.51-.917.032-1.39-.48-.476-.95-.465-1.407.03l-6 5.938c-.126.082-.21.185-.25.31C.02 6.752 0 6.875 0 7z" id="path-1" class="cls-2" fill-rule="evenodd"/></svg>