<svg xmlns="http://www.w3.org/2000/svg" preserveAspectRatio="xMidYMid" width="24" height="15" viewBox="0 0 24 15"><defs><style>.cls-2 { fill: #434a54; }</style></defs><path d="M24 7c0-.124-.02-.247-.062-.37-.042-.125-.125-.228-.25-.31l-6-5.938c-.46-.495-.928-.506-1.407-.03-.478.473-.468.937.032 1.39l4.25 4.268H1c-.292 0-.53.093-.72.28C.095 6.473 0 6.71 0 7s.094.526.28.71c.19.187.428.28.72.28h19.563l-4.25 4.268c-.5.453-.51.917-.032 1.39.48.476.95.465 1.407-.03l6-5.938c.126-.082.21-.185.25-.31.042-.123.063-.246.063-.37z" id="path-1" class="cls-2" fill-rule="evenodd"/></svg>