<svg xmlns="http://www.w3.org/2000/svg" viewBox="0 0 500 500" enable-background="new 0 0 500 500"><g fill="#A8BBCB"><path d="M183.755 310.184l14.592-7.047-12.795-5.465c-1.195-.51-2.546-.514-3.745-.01l-12.863 5.404 14.81 7.118zM168.653 329.474l-.54-9.55c-.07-1.243.612-2.408 1.732-2.954l8.804-4.294-15.103-7.332-7.102 3c-1.585.668-2.537 2.304-2.338 4.012l.977 8.363 13.57 8.754zM212.28 320.648l1.05-8.452c.2-1.61-.7-3.154-2.196-3.777l-7.39-3.075-14.955 7.332 8.924 4.295c1.13.544 1.816 1.723 1.73 2.975l-.66 9.53 13.497-8.83zM198.346 335.026l-1.094 15.16 10.39-7.647c1.333-.98 2.206-2.463 2.418-4.103l1.565-12.096-13.28 8.686zM169.017 335.026l-13.278-8.684 1.392 11.718c.23 1.923 1.25 3.663 2.817 4.8l10.09 7.327-1.023-15.16zM193.677 338.087l-8.118 5.358c-1.096.723-2.516.725-3.613.006l-8.187-5.363 1.02 15.517 6.75 4.87c1.324.958 3.117.947 4.43-.025l6.55-4.846 1.167-15.517zM404.596 250.76l14.592-7.048-12.795-5.465c-1.195-.51-2.546-.514-3.745-.01l-12.863 5.404 14.81 7.12zM389.494 270.05l-.54-9.55c-.07-1.244.612-2.41 1.732-2.955l8.804-4.294-15.102-7.33-7.102 2.998c-1.585.67-2.537 2.305-2.338 4.013l.977 8.364 13.57 8.755zM433.123 261.223l1.048-8.452c.2-1.608-.697-3.153-2.194-3.776l-7.39-3.074-14.955 7.332 8.926 4.295c1.13.544 1.816 1.723 1.73 2.975l-.66 9.53 13.497-8.83zM419.188 275.6l-1.094 15.162 10.39-7.648c1.333-.98 2.206-2.462 2.418-4.102l1.565-12.096-13.28 8.685zM389.86 275.6l-13.28-8.683 1.394 11.718c.23 1.923 1.25 3.663 2.817 4.8l10.092 7.327-1.023-15.16zM414.52 278.662l-8.12 5.358c-1.094.723-2.514.725-3.61.006l-8.188-5.364 1.02 15.517 6.75 4.87c1.324.957 3.117.946 4.43-.026l6.55-4.845 1.167-15.518zM117.044 53.8l14.592-7.047-12.795-5.465c-1.194-.51-2.545-.514-3.744-.01l-12.863 5.404 14.81 7.118zM101.942 73.09l-.54-9.55c-.07-1.243.612-2.408 1.732-2.954l8.804-4.294-15.103-7.332-7.102 3c-1.585.668-2.537 2.303-2.338 4.012l.977 8.363 13.57 8.755zM145.57 64.264l1.05-8.452c.2-1.61-.7-3.154-2.196-3.777l-7.39-3.074-14.955 7.333 8.924 4.295c1.13.544 1.816 1.723 1.73 2.975l-.66 9.53 13.497-8.83zM131.636 78.642l-1.094 15.16 10.39-7.647c1.333-.98 2.206-2.462 2.418-4.102l1.565-12.096-13.28 8.685zM102.307 78.642L89.03 69.958l1.392 11.718c.23 1.923 1.25 3.663 2.817 4.8l10.09 7.327-1.023-15.16zM126.967 81.703l-8.118 5.358c-1.096.724-2.516.726-3.613.007l-8.187-5.364 1.02 15.517 6.75 4.87c1.324.958 3.117.947 4.43-.025l6.55-4.845 1.167-15.517zM400.73 359.436c-3.51-1.857-7.86-.514-9.716 2.995-.423.802-.855 1.596-1.29 2.388h-28.803c3.178-8.69 5.89-17.74 8.102-27.106.912-3.864-1.48-7.735-5.345-8.648-3.863-.91-7.736 1.48-8.648 5.345-2.484 10.515-5.7 20.7-9.558 30.408h-55.22c3.93-24.98 6.098-52.158 6.426-79.076h35.99c3.97 0 7.19-3.22 7.19-7.19s-3.22-7.188-7.19-7.188h-35.99c-.36-29.524-2.934-59.358-7.618-86.265h53.48c3.286 7.497 6.208 15.39 8.725 23.648.944 3.1 3.794 5.095 6.873 5.095.694 0 1.4-.1 2.098-.315 3.797-1.157 5.938-5.175 4.78-8.972-2.044-6.71-4.346-13.2-6.88-19.458h27.41c.726 1.192 1.456 2.38 2.155 3.59 1.334 2.304 3.748 3.59 6.23 3.59 1.222 0 2.46-.31 3.593-.966 3.436-1.99 4.61-6.385 2.622-9.823-.94-1.624-1.91-3.227-2.893-4.82-.336-1.933-1.44-3.602-2.99-4.674-16.32-24.79-38.19-45.667-63.816-60.77-29.71-17.513-63.744-26.77-98.42-26.77-15.127 0-30.196 1.748-44.788 5.195-3.864.915-6.256 4.786-5.343 8.65.913 3.865 4.787 6.254 8.65 5.344 4.663-1.103 9.383-2.003 14.137-2.728-11.732 15.475-20.74 40.585-26.954 69.805h-59.04c-1.118-.27-2.26-.255-3.337 0H88.255c1.783-2.376 3.62-4.716 5.525-7.007 2.538-3.053 2.12-7.585-.932-10.124-3.052-2.537-7.585-2.122-10.124.93-4.65 5.593-8.96 11.43-12.926 17.47-1.572 1.086-2.683 2.78-3.008 4.74-18.737 30.44-28.86 65.748-28.86 101.823 0 51.844 20.19 100.587 56.85 137.247 36.66 36.66 85.402 56.85 137.248 56.85 72.153 0 137.944-39.66 171.697-103.498 1.856-3.512.515-7.86-2.995-9.716zm-61.614 19.76c-8.405 17.167-18.93 32.39-31.06 44.67-14.207 14.38-30.07 24.42-46.844 29.803 11.66-16.78 20.557-43.383 26.532-74.475h51.372zM286.294 170.72c-5.927-27.982-14.326-51.8-25.072-67.27 29.708 9.53 56.025 33.377 74.312 67.27h-49.24zm36.855-47.108c20.5 12.082 38.4 28.16 52.64 47.11H351.7c-10.28-20.868-23.338-38.604-38.358-52.47 3.318 1.686 6.593 3.466 9.807 5.36zm-121.16 13.744c8.91-24.122 20.14-38.523 30.038-38.523 11.592 0 24.225 18.568 33.794 49.67 2.14 6.96 4.086 14.394 5.833 22.218h-79.238c2.738-12.315 5.948-23.552 9.572-33.364zm-26.84 112.426c3.97.24 7.37-2.783 7.607-6.746 1.23-20.522 3.538-40.117 6.767-57.94h85.033c4.715 25.96 7.386 55.424 7.746 86.266h-35.897c-3.97 0-7.19 3.22-7.19 7.19s3.22 7.188 7.19 7.188h35.898c-.327 28.028-2.562 54.92-6.505 79.076h-29.394c-3.97 0-7.19 3.22-7.19 7.19s3.22 7.188 7.19 7.188h26.775c-2.112 10.49-4.57 20.347-7.357 29.407-9.57 31.103-22.203 49.67-33.795 49.67-9.704 0-20.36-13.26-29.234-36.384-1.422-3.708-5.58-5.555-9.287-4.136-3.707 1.422-5.558 5.58-4.135 9.287 4.382 11.418 8.97 20.09 13.557 26.65-32.3-10.348-60.013-37.54-78.07-74.526 3.658-.333 6.525-3.407 6.525-7.154 0-3.97-3.22-7.19-7.19-7.19h-5.654c-9.354-23.645-14.984-50.514-15.797-79.075h14.264c3.97 0 7.19-3.218 7.19-7.188 0-3.97-3.22-7.19-7.19-7.19H102.74c.874-30.595 7.33-60.18 18.82-86.264h53.39c-3.196 18.268-5.384 37.693-6.546 57.08-.236 3.962 2.783 7.368 6.747 7.604zm-122.684 35.96H88.36c.745 27.85 5.805 54.69 14.757 79.075h-28.71c-12.992-23.646-20.812-50.515-21.94-79.076zm53.486-100.644c-10.747 26.438-16.777 55.913-17.598 86.265H52.46c1.228-30.567 10.272-60.304 26.062-86.265h27.43zM83.204 379.195h25.78c5.766 12.827 12.67 24.832 20.66 35.762 6.527 8.933 13.59 16.892 21.083 23.845-27.227-13.87-50.472-34.474-67.523-59.607zm229.81 59.86c1.78-1.64 3.537-3.33 5.27-5.083 14.935-15.117 27.352-33.664 36.806-54.776h25.866c-17.393 25.756-40.872 46.21-67.94 59.858zM112.83 155.005c1.25.893 2.715 1.34 4.178 1.34 1.492 0 2.983-.465 4.247-1.39 2.175-1.59 53.263-39.516 53.263-84.876 0-31.712-25.8-57.51-57.51-57.51s-57.51 25.798-57.51 57.51c0 46.298 51.154 83.37 53.332 84.925zm4.178-128.06c23.783 0 43.132 19.35 43.132 43.133 0 31.213-31.58 60.305-43.178 69.933-11.607-9.462-43.087-38.068-43.087-69.932 0-23.783 19.35-43.132 43.133-43.132zM404.558 206.665c-31.71 0-57.51 25.8-57.51 57.51 0 46.3 51.154 83.37 53.332 84.926 1.25.894 2.715 1.34 4.178 1.34 1.492 0 2.983-.464 4.247-1.388 2.175-1.592 53.263-39.517 53.263-84.877 0-31.712-25.8-57.51-57.51-57.51zm-.046 127.443c-11.607-9.463-43.087-38.07-43.087-69.933 0-23.784 19.35-43.132 43.133-43.132s43.133 19.35 43.133 43.132c0 31.212-31.58 60.304-43.178 69.933zM124.197 321.685c0 46.3 51.154 83.37 53.332 84.926 1.25.894 2.714 1.34 4.177 1.34 1.492 0 2.983-.464 4.247-1.388 2.175-1.592 53.263-39.517 53.263-84.877 0-31.71-25.8-57.51-57.51-57.51s-57.51 25.798-57.51 57.51zm57.51-43.133c23.783 0 43.132 19.35 43.132 43.132 0 31.213-31.582 60.305-43.18 69.933-11.606-9.463-43.086-38.07-43.086-69.933 0-23.783 19.35-43.132 43.133-43.132z"/></g></svg>