<svg xmlns="http://www.w3.org/2000/svg" xmlns:xlink="http://www.w3.org/1999/xlink" preserveAspectRatio="xMidYMid" width="50" height="50" viewBox="0 0 50 50">
  <defs>
    <style>

      .cls-2 {
        fill: #ffffff;
        opacity: 0.7;
      }
    </style>
  </defs>
  <path d="M46.670,12.526 C39.769,0.572 24.480,-3.524 12.527,3.378 C0.571,10.278 -3.525,25.564 3.379,37.517 C10.280,49.469 25.567,53.566 37.521,46.664 C49.476,39.762 53.574,24.477 46.670,12.526 ZM35.022,42.335 C25.459,47.856 13.229,44.580 7.708,35.017 C2.185,25.455 5.463,13.226 15.026,7.707 C24.589,2.185 36.820,5.462 42.341,15.024 C47.862,24.587 44.585,36.813 35.022,42.335 ZM34.023,24.005 C34.023,24.005 20.934,16.373 20.934,16.373 C19.741,15.676 18.779,16.233 18.786,17.613 C18.786,17.613 18.853,32.762 18.853,32.762 C18.859,34.141 19.833,34.703 21.029,34.012 C21.029,34.012 34.019,26.514 34.019,26.514 C35.212,25.825 35.215,24.702 34.023,24.005 Z" id="path-1" class="cls-2" fill-rule="evenodd"/>
</svg>
