<svg xmlns="http://www.w3.org/2000/svg" preserveAspectRatio="xMidYMid" width="12" height="12" viewBox="0 0 24 24"><defs><style>.cls-1 { fill: #aab2bd; fill-rule: evenodd; }</style></defs><path d="M12 0C5.373 0 0 5.373 0 12s5.373 12 12 12 12-5.373 12-12S18.627 0 12 0zm-.288 19.2c-.69 0-1.248-.56-1.248-1.248 0-.69.56-1.248 1.248-1.248.69 0 1.248.56 1.248 1.248 0 .69-.56 1.248-1.248 1.248zm2.19-6.13c-.572.29-.942.91-.942 1.576v.65l-2.496.002v-.65c0-1.625.885-3.082 2.308-3.804.672-.34 1.124-.915 1.124-1.428 0-.89-.904-1.702-1.896-1.702-.992 0-1.896.81-1.896 1.702H7.608c0-2.276 2.01-4.198 4.392-4.198 2.38 0 4.392 1.922 4.392 4.198 0 1.475-.955 2.875-2.49 3.654z" class="cls-1"/></svg>